<svg fill="none" height="36" viewBox="0 0 37 36" width="37" xmlns="http://www.w3.org/2000/svg">
    <g clip-path="url(#clip0_1616_5664)">
        <path
            d="M3.5 9L13.985 19.5H3.5V24H18.485L28.985 34.5L30.875 32.625L5.375 7.125L3.5 9ZM31.25 19.5H33.5V24H31.25V19.5ZM27.5 19.5H29.75V24H27.5V19.5ZM28.775 7.32C29.705 6.405 30.275 5.145 30.275 3.75H28.025C28.025 5.28 26.78 6.525 25.25 6.525V8.775C28.61 8.775 31.25 11.52 31.25 14.88V18H33.5V14.88C33.5 11.535 31.58 8.655 28.775 7.32ZM22.25 13.05H24.545C26.12 13.05 27.5 14.16 27.5 16.125V18H29.75V15.615C29.75 12.915 27.35 10.875 24.545 10.875H22.25C20.72 10.875 19.475 9.405 19.475 7.875C19.475 6.345 20.72 5.25 22.25 5.25V3C19.475 3 17.225 5.25 17.225 8.025C17.225 10.8 19.475 13.05 22.25 13.05ZM26 23.895V19.5H21.605L26 23.895Z"
            fill="#FFFFFF" />
    </g>
    <defs>
        <clipPath id="clip0_1616_5664">
            <rect fill="white" height="36" transform="translate(0.5)" width="36" />
        </clipPath>
    </defs>
</svg>