<svg fill="none" height="24" viewBox="0 0 24 24" width="24" xmlns="http://www.w3.org/2000/svg">
    <g clip-path="url(#clip0_1130_2)">
        <path
            d="M9 11H7V13H9V11ZM13 11H11V13H13V11ZM17 11H15V13H17V11ZM19 4H18V2H16V4H8V2H6V4H5C3.89 4 3.01 4.9 3.01 6L3 20C3 21.1 3.89 22 5 22H19C20.1 22 21 21.1 21 20V6C21 4.9 20.1 4 19 4ZM19 20H5V9H19V20Z"
            fill="#002F6C" />
    </g>
    <defs>
        <clipPath id="clip0_1130_2">
            <rect fill="white" height="24" width="24" />
        </clipPath>
    </defs>
</svg>

