<svg width="31" height="26" viewBox="0 0 31 26" fill="none" xmlns="http://www.w3.org/2000/svg">
    <path
        d="M24.5 21H26.75V25.5H24.5V21ZM0.5 21H23V25.5H0.5V21ZM21.545 12.3H19.25C17.72 12.3 16.475 10.83 16.475 9.3C16.475 7.77 17.72 6.675 19.25 6.675V4.425C16.475 4.425 14.225 6.675 14.225 9.45C14.225 12.225 16.475 14.475 19.25 14.475H21.545C23.12 14.475 24.5 15.585 24.5 17.55V19.5H26.75V17.04C26.75 14.325 24.35 12.3 21.545 12.3ZM28.25 21H30.5V25.5H28.25V21ZM25.775 8.595C26.705 7.68 27.275 6.42 27.275 5.025C27.275 2.25 25.025 0 22.25 0V2.25C23.78 2.25 25.025 3.495 25.025 5.025C25.025 6.555 23.78 7.8 22.25 7.8V10.05C25.61 10.05 28.25 12.795 28.25 16.155V19.5H30.5V16.14C30.5 12.81 28.58 9.93 25.775 8.595Z"
        fill="#002F6C" />
</svg>
