<svg width="30" height="26" viewBox="0 0 30 26" fill="none" xmlns="http://www.w3.org/2000/svg">
    <path
        d="M24 21H26.25V25.5H24V21ZM0 21H22.5V25.5H0V21ZM21.045 12.3H18.75C17.22 12.3 15.975 10.83 15.975 9.3C15.975 7.77 17.22 6.675 18.75 6.675V4.425C15.975 4.425 13.725 6.675 13.725 9.45C13.725 12.225 15.975 14.475 18.75 14.475H21.045C22.62 14.475 24 15.585 24 17.55V19.5H26.25V17.04C26.25 14.325 23.85 12.3 21.045 12.3ZM27.75 21H30V25.5H27.75V21ZM25.275 8.595C26.205 7.68 26.775 6.42 26.775 5.025C26.775 2.25 24.525 0 21.75 0V2.25C23.28 2.25 24.525 3.495 24.525 5.025C24.525 6.555 23.28 7.8 21.75 7.8V10.05C25.11 10.05 27.75 12.795 27.75 16.155V19.5H30V16.14C30 12.81 28.08 9.93 25.275 8.595Z"
        fill="#EAEAEA" />
</svg>
